<svg width="54" height="33" viewBox="0 0 54 33" fill="none" xmlns="http://www.w3.org/2000/svg">
<path d="M14.72 4.16L5.96 31.04V31C5.8 31.4 5.57333 31.7333 5.28 32C5.01333 32.24 4.68 32.36 4.28 32.36C4.06667 32.36 3.85333 32.3333 3.64 32.28C3.45333 32.2533 3.25333 32.2133 3.04 32.16H3.08C1.56 31.68 1 30.8267 1.4 29.6L10.52 1.88C10.6533 1.45333 10.88 1.09333 11.2 0.799999C11.5467 0.506666 11.9467 0.333333 12.4 0.279998C12.8533 0.199998 13.2933 0.146664 13.72 0.119998C14.1467 0.0666653 14.48 0.039999 14.72 0.039999C14.96 0.039999 15.2933 0.0666653 15.72 0.119998C16.1467 0.146664 16.5867 0.186665 17.04 0.239999C17.4133 0.293331 17.7733 0.493331 18.12 0.839998C18.4933 1.18667 18.7733 1.53333 18.96 1.88C20.4533 6.46667 21.96 11.0933 23.48 15.76C25.0267 20.4 26.5467 25.0133 28.04 29.6C28.4133 30.8267 27.8533 31.68 26.36 32.16C26.1467 32.2133 25.9467 32.2533 25.76 32.28C25.6 32.3333 25.4133 32.36 25.2 32.36C24.8267 32.36 24.48 32.24 24.16 32C23.8667 31.7333 23.6533 31.4 23.52 31V31.04L14.72 4.16ZM17.72 22.4C17.72 23.2533 17.4133 23.9867 16.8 24.6C16.2133 25.1867 15.4933 25.48 14.64 25.48C13.7867 25.48 13.0667 25.1867 12.48 24.6C11.8933 23.9867 11.6 23.2533 11.6 22.4C11.6 21.5467 11.8933 20.8267 12.48 20.24C13.0667 19.6267 13.7867 19.32 14.64 19.32C15.4933 19.32 16.2133 19.6267 16.8 20.24C17.4133 20.8267 17.72 21.5467 17.72 22.4ZM53.1819 25.6C53.1819 27.76 52.4619 29.3733 51.0219 30.44C50.3285 30.9467 49.6085 31.3467 48.8619 31.64C48.1419 31.9067 47.4352 32.04 46.7419 32.04H38.0219C37.3285 32.04 36.6085 31.9067 35.8619 31.64C35.1419 31.3467 34.4352 30.9467 33.7419 30.44C33.0485 29.9067 32.5152 29.2533 32.1419 28.48C31.7685 27.68 31.5819 26.72 31.5819 25.6V1.96C31.5819 0.679999 32.3685 0.039999 33.9419 0.039999C35.5419 0.039999 36.3419 0.679999 36.3419 1.96V25.28C36.3419 25.9733 36.5419 26.6 36.9419 27.16C37.3419 27.72 38.0352 28 39.0219 28H45.7419C46.7285 28 47.4219 27.72 47.8219 27.16C48.2219 26.6 48.4219 25.9733 48.4219 25.28V1.96C48.4219 0.679999 49.2085 0.039999 50.7819 0.039999C52.3819 0.039999 53.1819 0.679999 53.1819 1.96V25.6Z" fill="#ACABA7"/>
</svg>
