<svg width="644" height="167" viewBox="0 0 644 167" fill="none" xmlns="http://www.w3.org/2000/svg">
<path d="M208.654 17.24L195.514 57.56V57.5C195.274 58.1 194.934 58.6 194.494 59C194.094 59.36 193.594 59.54 192.994 59.54C192.674 59.54 192.354 59.5 192.034 59.42C191.754 59.38 191.454 59.32 191.134 59.24H191.194C188.914 58.52 188.074 57.24 188.674 55.4L202.354 13.82C202.554 13.18 202.894 12.64 203.374 12.2C203.894 11.76 204.494 11.5 205.174 11.42C205.854 11.3 206.514 11.22 207.154 11.18C207.794 11.1 208.294 11.06 208.654 11.06C209.014 11.06 209.514 11.1 210.154 11.18C210.794 11.22 211.454 11.28 212.134 11.36C212.694 11.44 213.234 11.74 213.754 12.26C214.314 12.78 214.734 13.3 215.014 13.82C217.254 20.7 219.514 27.64 221.794 34.64C224.114 41.6 226.394 48.52 228.634 55.4C229.194 57.24 228.354 58.52 226.114 59.24C225.794 59.32 225.494 59.38 225.214 59.42C224.974 59.5 224.694 59.54 224.374 59.54C223.814 59.54 223.294 59.36 222.814 59C222.374 58.6 222.054 58.1 221.854 57.5V57.56L208.654 17.24ZM213.154 44.6C213.154 45.88 212.694 46.98 211.774 47.9C210.894 48.78 209.814 49.22 208.534 49.22C207.254 49.22 206.174 48.78 205.294 47.9C204.414 46.98 203.974 45.88 203.974 44.6C203.974 43.32 204.414 42.24 205.294 41.36C206.174 40.44 207.254 39.98 208.534 39.98C209.814 39.98 210.894 40.44 211.774 41.36C212.694 42.24 213.154 43.32 213.154 44.6ZM235.387 67.4C233.987 67.4 233.247 66.46 233.167 64.58C233.167 62.7 233.907 61.76 235.387 61.76H238.027C239.427 61.76 240.347 61.34 240.787 60.5L241.627 58.28L241.927 57.32L230.227 26.66V26.72C229.907 25.76 229.967 24.94 230.407 24.26C230.887 23.58 231.607 23.08 232.567 22.76C233.287 22.56 233.867 22.46 234.307 22.46C235.467 22.46 236.187 23.14 236.467 24.5L241.207 36.32L245.227 46.16L251.647 24.62C252.007 23.18 252.847 22.46 254.167 22.46C254.487 22.46 255.007 22.56 255.727 22.76C256.687 23.04 257.367 23.5 257.767 24.14C258.207 24.78 258.307 25.54 258.067 26.42C256.267 32.54 254.427 38.7 252.547 44.9C250.707 51.1 248.887 57.24 247.087 63.32C246.887 63.76 246.567 64.2 246.127 64.64C245.727 65.12 245.187 65.56 244.507 65.96C243.827 66.4 242.987 66.74 241.987 66.98C240.987 67.26 239.827 67.4 238.507 67.4H235.387ZM282.674 38C283.674 38 284.734 38.24 285.854 38.72C287.014 39.16 288.094 39.72 289.094 40.4H289.034C290.074 41.16 290.874 42.14 291.434 43.34C291.994 44.54 292.274 45.98 292.274 47.66V49.46C292.274 52.74 291.194 55.16 289.034 56.72C287.994 57.52 286.934 58.1 285.854 58.46C284.774 58.82 283.714 59 282.674 59H272.474C271.434 59 270.374 58.82 269.294 58.46C268.214 58.1 267.154 57.52 266.114 56.72C263.954 55.2 262.874 52.78 262.874 49.46V48.74C262.874 47.02 263.974 46.18 266.174 46.22C268.414 46.22 269.534 47.06 269.534 48.74V49.4C269.534 50.36 269.834 51.26 270.434 52.1C271.034 52.94 272.094 53.36 273.614 53.36H281.534C283.054 53.36 284.114 52.94 284.714 52.1C285.314 51.26 285.614 50.36 285.614 49.4V47.72C285.614 47.2 285.534 46.7 285.374 46.22C285.254 45.74 285.034 45.32 284.714 44.96C284.394 44.56 283.974 44.24 283.454 44C282.934 43.76 282.294 43.64 281.534 43.64H272.774C270.734 43.64 268.594 42.92 266.354 41.48C264.234 40.12 263.174 37.78 263.174 34.46V32.42C263.174 30.82 263.454 29.42 264.014 28.22C264.574 26.98 265.374 25.98 266.414 25.22H266.354C267.354 24.54 268.414 23.98 269.534 23.54C270.654 23.1 271.734 22.88 272.774 22.88H282.374C283.414 22.88 284.474 23.1 285.554 23.54C286.674 23.98 287.754 24.54 288.794 25.22H288.734C289.774 25.98 290.574 26.98 291.134 28.22C291.694 29.42 291.974 30.82 291.974 32.42V32.96C291.974 33.8 291.694 34.42 291.134 34.82C290.574 35.18 289.754 35.38 288.674 35.42C286.474 35.46 285.374 34.64 285.374 32.96V32.48C285.374 31.48 285.054 30.58 284.414 29.78C283.814 28.94 282.774 28.52 281.294 28.52H273.854C272.374 28.52 271.314 28.94 270.674 29.78C270.074 30.58 269.774 31.48 269.774 32.48V33.92C269.774 34.96 270.074 35.9 270.674 36.74C271.314 37.58 272.374 38 273.854 38H282.674ZM306.688 49.4C306.688 50.36 306.988 51.26 307.588 52.1C308.228 52.94 309.288 53.36 310.768 53.36H318.268C319.748 53.36 320.788 53 321.388 52.28C322.028 51.52 322.348 50.66 322.348 49.7V49.04C322.348 47.16 323.448 46.22 325.648 46.22C327.848 46.22 328.948 47.16 328.948 49.04V49.76C328.948 51.44 328.668 52.82 328.108 53.9C327.588 54.98 326.788 55.92 325.708 56.72C323.588 58.24 321.468 59 319.348 59H309.268C307.148 59 305.088 58.24 303.088 56.72C302.128 55.92 301.388 54.92 300.868 53.72C300.348 52.48 300.088 51.06 300.088 49.46V32.36C300.088 29.12 301.088 26.72 303.088 25.16C304.088 24.44 305.108 23.88 306.148 23.48C307.228 23.04 308.268 22.82 309.268 22.82H319.348C320.308 22.82 321.368 23.02 322.528 23.42C323.688 23.78 324.768 24.28 325.768 24.92C326.728 25.6 327.488 26.54 328.048 27.74C328.648 28.94 328.948 30.36 328.948 32V40.1C328.948 41.02 328.668 41.84 328.108 42.56C327.588 43.28 326.608 43.64 325.168 43.64H312.208C310.768 43.64 310.008 42.7 309.928 40.82C309.928 38.94 310.688 38 312.208 38H322.408L322.348 32.42C322.348 31.42 322.028 30.52 321.388 29.72C320.788 28.88 319.748 28.46 318.268 28.46H310.768C309.288 28.46 308.228 28.88 307.588 29.72C306.988 30.52 306.688 31.42 306.688 32.42V49.4ZM343.432 56.66C343.432 58.54 342.332 59.48 340.132 59.48C337.892 59.48 336.772 58.54 336.772 56.66V13.64C336.772 11.76 337.892 10.82 340.132 10.82C342.332 10.82 343.432 11.76 343.432 13.64V56.66ZM402.578 49.4C402.578 52.64 401.498 55.06 399.337 56.66C398.298 57.42 397.218 58.02 396.098 58.46C395.018 58.86 393.958 59.06 392.918 59.06H379.838C378.798 59.06 377.718 58.86 376.598 58.46C375.518 58.02 374.458 57.42 373.418 56.66C372.378 55.86 371.578 54.88 371.018 53.72C370.458 52.52 370.178 51.08 370.178 49.4V13.94C370.178 12.02 371.358 11.06 373.718 11.06C376.118 11.06 377.318 12.02 377.318 13.94V48.92C377.318 49.96 377.618 50.9 378.218 51.74C378.818 52.58 379.858 53 381.338 53H391.418C392.898 53 393.938 52.58 394.538 51.74C395.138 50.9 395.438 49.96 395.438 48.92V13.94C395.438 12.02 396.618 11.06 398.978 11.06C401.378 11.06 402.578 12.02 402.578 13.94V49.4ZM438.36 13.94C438.36 12.02 439.54 11.06 441.9 11.06C444.26 11.06 445.44 12.02 445.44 13.94V55.34C445.44 56.74 444.7 57.76 443.22 58.4H443.28C442.64 58.68 441.96 58.9 441.24 59.06C440.52 59.22 439.82 59.3 439.14 59.3C438.62 59.3 438.08 59.24 437.52 59.12C436.96 59.04 436.42 58.9 435.9 58.7C435.42 58.46 434.96 58.16 434.52 57.8C434.12 57.4 433.8 56.92 433.56 56.36L420.54 23.9L418.92 24.08V56.48C418.92 58.4 417.72 59.36 415.32 59.36C412.96 59.36 411.78 58.4 411.78 56.48V15.14C411.78 13.5 412.5 12.4 413.94 11.84C415.26 11.32 416.66 11.06 418.14 11.06C419.18 11.06 420.22 11.28 421.26 11.72C422.34 12.12 423.16 12.9 423.72 14.06L436.68 46.58L438.36 46.4V13.94ZM458.158 59.06C456.678 59.06 455.678 58.68 455.158 57.92C454.638 57.16 454.378 56.32 454.378 55.4V13.94C454.378 12.02 455.538 11.06 457.858 11.06C460.258 11.06 461.458 12.02 461.458 13.94V53H481.498C482.938 53 483.658 53.98 483.658 55.94C483.738 58.02 483.018 59.06 481.498 59.06H458.158ZM521.523 49.4C521.523 52.64 520.443 55.06 518.283 56.66C517.243 57.42 516.163 58.02 515.043 58.46C513.963 58.86 512.903 59.06 511.863 59.06H498.783C497.743 59.06 496.663 58.86 495.543 58.46C494.463 58.02 493.403 57.42 492.363 56.66C491.323 55.86 490.523 54.88 489.963 53.72C489.403 52.52 489.123 51.08 489.123 49.4V13.94C489.123 12.02 490.303 11.06 492.663 11.06C495.063 11.06 496.263 12.02 496.263 13.94V48.92C496.263 49.96 496.563 50.9 497.163 51.74C497.763 52.58 498.803 53 500.283 53H510.363C511.843 53 512.883 52.58 513.483 51.74C514.083 50.9 514.383 49.96 514.383 48.92V13.94C514.383 12.02 515.563 11.06 517.923 11.06C520.323 11.06 521.523 12.02 521.523 13.94V49.4Z" fill="#544C42"/>
<path d="M6.368 105.656C6.368 106.68 5.73867 107.192 4.48 107.192C3.22133 107.192 2.592 106.68 2.592 105.656V83.512C2.592 83.0213 2.73067 82.584 3.008 82.2C3.28533 81.7947 3.81867 81.592 4.608 81.592H15.488C16.256 81.592 16.6613 82.1253 16.704 83.192C16.7467 84.28 16.3413 84.824 15.488 84.824H6.368V105.656ZM14.56 93.784C14.56 94.1467 14.4853 94.4987 14.336 94.84C14.208 95.16 14.016 95.4373 13.76 95.672C13.5253 95.9067 13.248 96.0987 12.928 96.248C12.608 96.376 12.256 96.44 11.872 96.44C11.1467 96.44 10.528 96.184 10.016 95.672C9.504 95.16 9.248 94.5307 9.248 93.784C9.248 93.0373 9.504 92.408 10.016 91.896C10.528 91.384 11.1467 91.128 11.872 91.128C12.256 91.128 12.608 91.2027 12.928 91.352C13.248 91.48 13.5253 91.672 13.76 91.928C14.016 92.1627 14.208 92.44 14.336 92.76C14.4853 93.08 14.56 93.4213 14.56 93.784ZM23.353 105.656C23.353 106.68 22.7663 107.192 21.593 107.192C20.377 107.192 19.769 106.68 19.769 105.656V92.408C19.769 90.6587 20.2917 89.4427 21.337 88.76C22.3823 88.0773 23.5877 87.736 24.953 87.736H28.601C29.3903 87.736 29.785 88.2373 29.785 89.24C29.8277 90.2427 29.433 90.744 28.601 90.744H25.209C24.441 90.744 23.9397 90.8933 23.705 91.192C23.4703 91.4907 23.353 91.9067 23.353 92.44V105.656ZM42.7308 87.736C43.2854 87.736 43.8508 87.8533 44.4268 88.088C45.0241 88.3227 45.6001 88.6213 46.1548 88.984H46.1228C46.6774 89.3893 47.1041 89.9227 47.4028 90.584C47.7014 91.224 47.8507 91.9707 47.8507 92.824V101.912C47.8507 103.661 47.2748 104.952 46.1228 105.784C44.9921 106.595 43.8614 107 42.7308 107H37.6108C37.0561 107 36.4908 106.904 35.9148 106.712C35.3388 106.52 34.7734 106.211 34.2188 105.784C33.0668 104.973 32.4908 103.683 32.4908 101.912V92.824C32.4908 91.9707 32.6401 91.224 32.9388 90.584C33.2374 89.9227 33.6641 89.3893 34.2188 88.984H34.1868C34.7201 88.6213 35.2854 88.3227 35.8828 88.088C36.4801 87.8533 37.0561 87.736 37.6108 87.736H42.7308ZM42.1548 103.992C42.9441 103.992 43.4988 103.768 43.8188 103.32C44.1601 102.872 44.3308 102.392 44.3308 101.88V92.856C44.3308 92.3227 44.1601 91.8427 43.8188 91.416C43.4988 90.968 42.9441 90.744 42.1548 90.744H38.1868C37.3974 90.744 36.8321 90.968 36.4908 91.416C36.1708 91.8427 36.0108 92.3227 36.0108 92.856V101.88C36.0108 102.392 36.1708 102.872 36.4908 103.32C36.8321 103.768 37.3974 103.992 38.1868 103.992H42.1548ZM55.417 105.656C55.417 106.68 54.8303 107.192 53.657 107.192C52.4837 107.192 51.897 106.68 51.897 105.656V92.792C51.897 91.9173 52.0357 91.16 52.313 90.52C52.5903 89.88 53.0277 89.3573 53.625 88.952C54.7557 88.1413 55.8863 87.736 57.017 87.736H62.169C63.257 87.736 64.3877 88.1413 65.561 88.952C66.713 89.7627 67.289 91.0427 67.289 92.792V105.656C67.289 106.68 66.7023 107.192 65.529 107.192C64.3557 107.192 63.769 106.68 63.769 105.656V93.08C63.769 92.5253 63.5983 91.992 63.257 91.48L63.289 91.512C63.0117 91 62.4463 90.744 61.593 90.744H57.593C56.7183 90.744 56.1423 91 55.865 91.512C55.5663 91.96 55.417 92.4827 55.417 93.08V105.656ZM75.6203 90.744V102.392C75.6203 102.947 75.7376 103.373 75.9723 103.672C76.2069 103.971 76.7083 104.12 77.4763 104.12H78.3083C79.1403 104.12 79.5349 104.611 79.4923 105.592C79.4923 106.595 79.0976 107.096 78.3083 107.096H77.2523C76.5696 107.096 75.9296 107.011 75.3323 106.84C74.7349 106.648 74.1589 106.381 73.6043 106.04V106.072C72.5589 105.389 72.0363 104.173 72.0363 102.424V90.744H70.7883C70.0203 90.744 69.6149 90.2427 69.5723 89.24C69.5723 88.2373 69.9776 87.736 70.7883 87.736H72.0363V84.312C72.0363 83.288 72.6443 82.776 73.8602 82.776C75.0336 82.776 75.6203 83.288 75.6203 84.312V87.736H78.2763C79.1083 87.736 79.5029 88.2373 79.4603 89.24C79.4603 90.2427 79.0656 90.744 78.2763 90.744H75.6203ZM85.792 101.88C85.792 102.392 85.952 102.872 86.272 103.32C86.6133 103.768 87.1787 103.992 87.968 103.992H91.968C92.7573 103.992 93.312 103.8 93.632 103.416C93.9733 103.011 94.144 102.552 94.144 102.04V101.688C94.144 100.685 94.7307 100.184 95.904 100.184C97.0773 100.184 97.664 100.685 97.664 101.688V102.072C97.664 102.968 97.5147 103.704 97.216 104.28C96.9387 104.856 96.512 105.357 95.936 105.784C94.8053 106.595 93.6747 107 92.544 107H87.168C86.0373 107 84.9387 106.595 83.872 105.784C83.36 105.357 82.9653 104.824 82.688 104.184C82.4107 103.523 82.272 102.765 82.272 101.912V92.792C82.272 91.064 82.8053 89.784 83.872 88.952C84.4053 88.568 84.9493 88.2693 85.504 88.056C86.08 87.8213 86.6347 87.704 87.168 87.704H92.544C93.056 87.704 93.6213 87.8107 94.24 88.024C94.8587 88.216 95.4347 88.4827 95.968 88.824C96.48 89.1867 96.8853 89.688 97.184 90.328C97.504 90.968 97.664 91.7253 97.664 92.6V96.92C97.664 97.4107 97.5147 97.848 97.216 98.232C96.9387 98.616 96.416 98.808 95.648 98.808H88.736C87.968 98.808 87.5627 98.3067 87.52 97.304C87.52 96.3013 87.9253 95.8 88.736 95.8H94.176L94.144 92.824C94.144 92.2907 93.9733 91.8107 93.632 91.384C93.312 90.936 92.7573 90.712 91.968 90.712H87.968C87.1787 90.712 86.6133 90.936 86.272 91.384C85.952 91.8107 85.792 92.2907 85.792 92.824V101.88ZM105.261 105.656C105.261 106.68 104.674 107.192 103.501 107.192C102.327 107.192 101.741 106.68 101.741 105.656V92.792C101.741 91.9173 101.879 91.16 102.157 90.52C102.434 89.88 102.871 89.3573 103.469 88.952C104.599 88.1413 105.73 87.736 106.861 87.736H112.013C113.101 87.736 114.231 88.1413 115.405 88.952C116.557 89.7627 117.133 91.0427 117.133 92.792V105.656C117.133 106.68 116.546 107.192 115.373 107.192C114.199 107.192 113.613 106.68 113.613 105.656V93.08C113.613 92.5253 113.442 91.992 113.101 91.48L113.133 91.512C112.855 91 112.29 90.744 111.437 90.744H107.437C106.562 90.744 105.986 91 105.709 91.512C105.41 91.96 105.261 92.4827 105.261 93.08V105.656ZM133.144 90.744H126.968C126.093 90.744 125.517 91 125.24 91.512C124.941 91.96 124.792 92.4827 124.792 93.08V102.296C124.792 102.851 124.963 103.277 125.304 103.576C125.645 103.853 126.211 103.992 127 103.992H130.296C131.064 103.992 131.448 104.493 131.448 105.496C131.448 105.923 131.352 106.285 131.16 106.584C130.989 106.861 130.701 107 130.296 107H126.424C125.08 107 123.885 106.659 122.84 105.976C121.795 105.336 121.272 104.12 121.272 102.328V92.792C121.272 91.9173 121.411 91.16 121.688 90.52C121.965 89.88 122.403 89.3573 123 88.952C124.131 88.1413 125.261 87.736 126.392 87.736H133.144V82.936C133.144 81.912 133.731 81.4 134.904 81.4C136.077 81.4 136.664 81.912 136.664 82.936V105.656C136.664 106.68 136.077 107.192 134.904 107.192C134.456 107.192 134.051 107.117 133.688 106.968C133.325 106.797 133.144 106.435 133.144 105.88V90.744ZM162.075 103.8C162.864 103.8 163.419 103.576 163.739 103.128C164.059 102.68 164.219 102.179 164.219 101.624V86.968C164.219 86.4347 164.059 85.944 163.739 85.496C163.419 85.048 162.864 84.824 162.075 84.824H154.587L154.555 105.688C154.555 106.157 154.373 106.531 154.011 106.808C153.648 107.085 153.2 107.224 152.667 107.224C151.408 107.224 150.779 106.712 150.779 105.688V83.512C150.779 82.744 150.971 82.232 151.355 81.976C151.76 81.72 152.24 81.592 152.795 81.592H162.875C163.429 81.592 164.005 81.7093 164.603 81.944C165.2 82.1787 165.776 82.4773 166.331 82.84H166.299C166.853 83.2453 167.28 83.7787 167.579 84.44C167.877 85.08 168.027 85.8267 168.027 86.68V101.88C168.027 103.608 167.451 104.899 166.299 105.752C165.744 106.157 165.168 106.477 164.571 106.712C163.995 106.925 163.429 107.032 162.875 107.032H157.499C157.136 107.032 156.848 106.883 156.635 106.584C156.443 106.285 156.347 105.891 156.347 105.4C156.347 104.333 156.805 103.8 157.723 103.8H162.075ZM176.105 101.88C176.105 102.392 176.265 102.872 176.585 103.32C176.926 103.768 177.491 103.992 178.281 103.992H182.281C183.07 103.992 183.625 103.8 183.945 103.416C184.286 103.011 184.457 102.552 184.457 102.04V101.688C184.457 100.685 185.043 100.184 186.217 100.184C187.39 100.184 187.977 100.685 187.977 101.688V102.072C187.977 102.968 187.827 103.704 187.529 104.28C187.251 104.856 186.825 105.357 186.249 105.784C185.118 106.595 183.987 107 182.857 107H177.481C176.35 107 175.251 106.595 174.185 105.784C173.673 105.357 173.278 104.824 173.001 104.184C172.723 103.523 172.585 102.765 172.585 101.912V92.792C172.585 91.064 173.118 89.784 174.185 88.952C174.718 88.568 175.262 88.2693 175.817 88.056C176.393 87.8213 176.947 87.704 177.481 87.704H182.857C183.369 87.704 183.934 87.8107 184.553 88.024C185.171 88.216 185.747 88.4827 186.281 88.824C186.793 89.1867 187.198 89.688 187.497 90.328C187.817 90.968 187.977 91.7253 187.977 92.6V96.92C187.977 97.4107 187.827 97.848 187.529 98.232C187.251 98.616 186.729 98.808 185.961 98.808H179.049C178.281 98.808 177.875 98.3067 177.833 97.304C177.833 96.3013 178.238 95.8 179.049 95.8H184.489L184.457 92.824C184.457 92.2907 184.286 91.8107 183.945 91.384C183.625 90.936 183.07 90.712 182.281 90.712H178.281C177.491 90.712 176.926 90.936 176.585 91.384C176.265 91.8107 176.105 92.2907 176.105 92.824V101.88ZM198.581 107.192C198.539 107.192 198.485 107.181 198.421 107.16C198.357 107.16 198.293 107.16 198.229 107.16C198.123 107.16 197.973 107.16 197.781 107.16C197.589 107.16 197.408 107.149 197.237 107.128C196.875 107.107 196.565 107.011 196.309 106.84C196.053 106.648 195.872 106.424 195.765 106.168L190.389 89.656C190.283 89.208 190.336 88.8133 190.549 88.472C190.784 88.1093 191.147 87.8427 191.637 87.672C191.787 87.6293 191.936 87.5973 192.085 87.576C192.235 87.5547 192.363 87.544 192.469 87.544C193.131 87.544 193.589 87.9067 193.845 88.632L196.181 95.896L198.645 103.512L203.445 88.632C203.68 87.8853 204.107 87.512 204.725 87.512C204.96 87.512 205.259 87.5653 205.621 87.672C206.176 87.8213 206.56 88.0773 206.773 88.44C206.987 88.7813 207.019 89.1867 206.869 89.656L201.525 106.168C201.333 106.765 200.832 107.085 200.021 107.128C199.979 107.128 199.925 107.128 199.861 107.128C199.819 107.149 199.776 107.16 199.733 107.16C199.563 107.181 199.413 107.192 199.285 107.192C199.157 107.192 199.04 107.192 198.933 107.192H198.581ZM213.23 101.88C213.23 102.392 213.39 102.872 213.71 103.32C214.051 103.768 214.616 103.992 215.406 103.992H219.406C220.195 103.992 220.75 103.8 221.07 103.416C221.411 103.011 221.582 102.552 221.582 102.04V101.688C221.582 100.685 222.168 100.184 223.342 100.184C224.515 100.184 225.102 100.685 225.102 101.688V102.072C225.102 102.968 224.952 103.704 224.654 104.28C224.376 104.856 223.95 105.357 223.374 105.784C222.243 106.595 221.112 107 219.982 107H214.606C213.475 107 212.376 106.595 211.31 105.784C210.798 105.357 210.403 104.824 210.126 104.184C209.848 103.523 209.71 102.765 209.71 101.912V92.792C209.71 91.064 210.243 89.784 211.31 88.952C211.843 88.568 212.387 88.2693 212.942 88.056C213.518 87.8213 214.072 87.704 214.606 87.704H219.982C220.494 87.704 221.059 87.8107 221.678 88.024C222.296 88.216 222.872 88.4827 223.406 88.824C223.918 89.1867 224.323 89.688 224.622 90.328C224.942 90.968 225.102 91.7253 225.102 92.6V96.92C225.102 97.4107 224.952 97.848 224.654 98.232C224.376 98.616 223.854 98.808 223.086 98.808H216.174C215.406 98.808 215 98.3067 214.958 97.304C214.958 96.3013 215.363 95.8 216.174 95.8H221.614L221.582 92.824C221.582 92.2907 221.411 91.8107 221.07 91.384C220.75 90.936 220.195 90.712 219.406 90.712H215.406C214.616 90.712 214.051 90.936 213.71 91.384C213.39 91.8107 213.23 92.2907 213.23 92.824V101.88ZM232.826 105.752C232.826 106.755 232.24 107.256 231.066 107.256C229.872 107.256 229.274 106.755 229.274 105.752V82.808C229.274 81.8053 229.872 81.304 231.066 81.304C232.24 81.304 232.826 81.8053 232.826 82.808V105.752ZM247.481 87.736C248.035 87.736 248.601 87.8533 249.177 88.088C249.774 88.3227 250.35 88.6213 250.905 88.984H250.873C251.427 89.3893 251.854 89.9227 252.153 90.584C252.451 91.224 252.601 91.9707 252.601 92.824V101.912C252.601 103.661 252.025 104.952 250.873 105.784C249.742 106.595 248.611 107 247.481 107H242.361C241.806 107 241.241 106.904 240.665 106.712C240.089 106.52 239.523 106.211 238.969 105.784C237.817 104.973 237.241 103.683 237.241 101.912V92.824C237.241 91.9707 237.39 91.224 237.689 90.584C237.987 89.9227 238.414 89.3893 238.969 88.984H238.937C239.47 88.6213 240.035 88.3227 240.633 88.088C241.23 87.8533 241.806 87.736 242.361 87.736H247.481ZM246.905 103.992C247.694 103.992 248.249 103.768 248.569 103.32C248.91 102.872 249.081 102.392 249.081 101.88V92.856C249.081 92.3227 248.91 91.8427 248.569 91.416C248.249 90.968 247.694 90.744 246.905 90.744H242.937C242.147 90.744 241.582 90.968 241.241 91.416C240.921 91.8427 240.761 92.3227 240.761 92.856V101.88C240.761 102.392 240.921 102.872 241.241 103.32C241.582 103.768 242.147 103.992 242.937 103.992H246.905ZM263.111 107C262.343 107 261.938 106.499 261.895 105.496C261.895 104.493 262.3 103.992 263.111 103.992H266.343C267.132 103.992 267.687 103.768 268.007 103.32C268.348 102.872 268.519 102.392 268.519 101.88V92.856C268.519 92.3227 268.348 91.832 268.007 91.384C267.687 90.9147 267.122 90.7013 266.311 90.744H260.167V109.976C260.167 110.979 259.58 111.48 258.407 111.48C257.234 111.48 256.647 110.968 256.647 109.944V89.624C256.647 88.8773 256.839 88.376 257.223 88.12C257.607 87.864 258.076 87.736 258.631 87.736H266.919C267.474 87.736 268.028 87.832 268.583 88.024C269.159 88.216 269.746 88.4827 270.343 88.824C270.855 89.1867 271.26 89.6987 271.559 90.36C271.879 91 272.039 91.7573 272.039 92.632V102.104C272.039 103.853 271.474 105.101 270.343 105.848C269.148 106.616 268.007 107 266.919 107H263.111ZM279.573 101.88C279.573 102.392 279.733 102.872 280.053 103.32C280.395 103.768 280.96 103.992 281.749 103.992H285.749C286.539 103.992 287.093 103.8 287.413 103.416C287.755 103.011 287.925 102.552 287.925 102.04V101.688C287.925 100.685 288.512 100.184 289.685 100.184C290.859 100.184 291.445 100.685 291.445 101.688V102.072C291.445 102.968 291.296 103.704 290.997 104.28C290.72 104.856 290.293 105.357 289.717 105.784C288.587 106.595 287.456 107 286.325 107H280.949C279.819 107 278.72 106.595 277.653 105.784C277.141 105.357 276.747 104.824 276.469 104.184C276.192 103.523 276.053 102.765 276.053 101.912V92.792C276.053 91.064 276.587 89.784 277.653 88.952C278.187 88.568 278.731 88.2693 279.285 88.056C279.861 87.8213 280.416 87.704 280.949 87.704H286.325C286.837 87.704 287.403 87.8107 288.021 88.024C288.64 88.216 289.216 88.4827 289.749 88.824C290.261 89.1867 290.667 89.688 290.965 90.328C291.285 90.968 291.445 91.7253 291.445 92.6V96.92C291.445 97.4107 291.296 97.848 290.997 98.232C290.72 98.616 290.197 98.808 289.429 98.808H282.517C281.749 98.808 281.344 98.3067 281.301 97.304C281.301 96.3013 281.707 95.8 282.517 95.8H287.957L287.925 92.824C287.925 92.2907 287.755 91.8107 287.413 91.384C287.093 90.936 286.539 90.712 285.749 90.712H281.749C280.96 90.712 280.395 90.936 280.053 91.384C279.733 91.8107 279.573 92.2907 279.573 92.824V101.88ZM298.978 105.656C298.978 106.68 298.391 107.192 297.218 107.192C296.002 107.192 295.394 106.68 295.394 105.656V92.408C295.394 90.6587 295.917 89.4427 296.962 88.76C298.007 88.0773 299.213 87.736 300.578 87.736H304.226C305.015 87.736 305.41 88.2373 305.41 89.24C305.453 90.2427 305.058 90.744 304.226 90.744H300.834C300.066 90.744 299.565 90.8933 299.33 91.192C299.095 91.4907 298.978 91.9067 298.978 92.44V105.656ZM323.246 95.192C322.819 95.4053 322.435 95.64 322.094 95.896C321.774 96.152 321.56 96.408 321.454 96.664V96.632C321.347 96.9307 321.272 97.2293 321.23 97.528C321.187 97.8053 321.166 98.072 321.166 98.328V101.624C321.166 102.179 321.326 102.68 321.646 103.128C321.966 103.576 322.52 103.8 323.31 103.8H328.046C328.451 103.8 328.803 103.725 329.102 103.576C329.422 103.405 329.688 103.192 329.902 102.936L323.246 95.192ZM335.822 104.344C335.971 104.515 336.078 104.696 336.142 104.888C336.206 105.059 336.238 105.208 336.238 105.336C336.238 105.549 336.152 105.784 335.982 106.04C335.832 106.296 335.662 106.52 335.47 106.712C334.979 107.096 334.552 107.288 334.19 107.288C333.784 107.288 333.422 107.096 333.102 106.712L332.686 106.264L332.302 105.912C331.683 106.296 331.075 106.584 330.478 106.776C329.902 106.947 329.358 107.032 328.846 107.032H322.51C321.955 107.032 321.379 106.925 320.782 106.712C320.206 106.477 319.64 106.157 319.086 105.752C317.955 104.92 317.39 103.629 317.39 101.88V98.104C317.39 96.6107 317.784 95.48 318.574 94.712C318.915 94.3493 319.299 93.9973 319.726 93.656C320.174 93.3147 320.664 93.0053 321.198 92.728L320.238 91.64L319.63 90.872C319.118 90.3387 318.819 89.7413 318.734 89.08C318.712 88.824 318.691 88.6107 318.67 88.44C318.67 88.248 318.67 88.1307 318.67 88.088V86.68C318.67 84.952 319.235 83.672 320.366 82.84H320.334C320.888 82.4773 321.464 82.1787 322.062 81.944C322.659 81.7093 323.235 81.592 323.79 81.592H327.278C327.79 81.592 328.344 81.7093 328.942 81.944C329.56 82.1787 330.147 82.4773 330.702 82.84H330.67C331.224 83.2453 331.651 83.7787 331.95 84.44C332.248 85.08 332.398 85.8267 332.398 86.68V88.408C332.398 89.4107 331.758 89.912 330.478 89.912C329.24 89.912 328.622 89.4107 328.622 88.408V86.968C328.622 86.4347 328.451 85.944 328.11 85.496C327.79 85.048 327.235 84.824 326.446 84.824H324.59C323.8 84.824 323.235 85.048 322.894 85.496C322.574 85.944 322.414 86.4347 322.414 86.968V87.992C322.414 88.4613 322.467 88.7813 322.574 88.952C322.83 89.272 323.15 89.6453 323.534 90.072C323.854 90.4347 324.248 90.8933 324.718 91.448C325.208 91.9813 325.774 92.6213 326.414 93.368L330.222 97.752V95.736C330.222 94.904 330.84 94.488 332.078 94.488C333.358 94.488 333.998 94.904 333.998 95.736V102.168L335.822 104.344ZM365.902 101.88C365.902 103.608 365.326 104.899 364.174 105.752C363.619 106.157 363.043 106.477 362.446 106.712C361.87 106.925 361.304 107.032 360.75 107.032H353.774C353.219 107.032 352.643 106.925 352.046 106.712C351.47 106.477 350.904 106.157 350.35 105.752C349.795 105.325 349.368 104.803 349.07 104.184C348.771 103.544 348.622 102.776 348.622 101.88V82.968C348.622 81.944 349.251 81.432 350.51 81.432C351.79 81.432 352.43 81.944 352.43 82.968V101.624C352.43 102.179 352.59 102.68 352.91 103.128C353.23 103.576 353.784 103.8 354.574 103.8H359.95C360.739 103.8 361.294 103.576 361.614 103.128C361.934 102.68 362.094 102.179 362.094 101.624V82.968C362.094 81.944 362.723 81.432 363.982 81.432C365.262 81.432 365.902 81.944 365.902 82.968V101.88ZM374.746 105.656C374.746 106.68 374.106 107.192 372.826 107.192C371.567 107.192 370.938 106.68 370.938 105.656V82.968C370.938 81.944 371.567 81.432 372.826 81.432C374.106 81.432 374.746 81.944 374.746 82.968V105.656ZM400.762 103.8C401.552 103.8 402.106 103.576 402.426 103.128C402.746 102.68 402.906 102.179 402.906 101.624V86.968C402.906 86.4347 402.746 85.944 402.426 85.496C402.106 85.048 401.552 84.824 400.762 84.824H393.274L393.242 105.688C393.242 106.157 393.061 106.531 392.698 106.808C392.336 107.085 391.888 107.224 391.354 107.224C390.096 107.224 389.466 106.712 389.466 105.688V83.512C389.466 82.744 389.658 82.232 390.042 81.976C390.448 81.72 390.928 81.592 391.482 81.592H401.562C402.117 81.592 402.693 81.7093 403.29 81.944C403.888 82.1787 404.464 82.4773 405.018 82.84H404.986C405.541 83.2453 405.968 83.7787 406.266 84.44C406.565 85.08 406.714 85.8267 406.714 86.68V101.88C406.714 103.608 406.138 104.899 404.986 105.752C404.432 106.157 403.856 106.477 403.258 106.712C402.682 106.925 402.117 107.032 401.562 107.032H396.186C395.824 107.032 395.536 106.883 395.322 106.584C395.13 106.285 395.034 105.891 395.034 105.4C395.034 104.333 395.493 103.8 396.41 103.8H400.762ZM414.792 101.88C414.792 102.392 414.952 102.872 415.272 103.32C415.613 103.768 416.179 103.992 416.968 103.992H420.968C421.757 103.992 422.312 103.8 422.632 103.416C422.973 103.011 423.144 102.552 423.144 102.04V101.688C423.144 100.685 423.731 100.184 424.904 100.184C426.077 100.184 426.664 100.685 426.664 101.688V102.072C426.664 102.968 426.515 103.704 426.216 104.28C425.939 104.856 425.512 105.357 424.936 105.784C423.805 106.595 422.675 107 421.544 107H416.168C415.037 107 413.939 106.595 412.872 105.784C412.36 105.357 411.965 104.824 411.688 104.184C411.411 103.523 411.272 102.765 411.272 101.912V92.792C411.272 91.064 411.805 89.784 412.872 88.952C413.405 88.568 413.949 88.2693 414.504 88.056C415.08 87.8213 415.635 87.704 416.168 87.704H421.544C422.056 87.704 422.621 87.8107 423.24 88.024C423.859 88.216 424.435 88.4827 424.968 88.824C425.48 89.1867 425.885 89.688 426.184 90.328C426.504 90.968 426.664 91.7253 426.664 92.6V96.92C426.664 97.4107 426.515 97.848 426.216 98.232C425.939 98.616 425.416 98.808 424.648 98.808H417.736C416.968 98.808 416.563 98.3067 416.52 97.304C416.52 96.3013 416.925 95.8 417.736 95.8H423.176L423.144 92.824C423.144 92.2907 422.973 91.8107 422.632 91.384C422.312 90.936 421.757 90.712 420.968 90.712H416.968C416.179 90.712 415.613 90.936 415.272 91.384C414.952 91.8107 414.792 92.2907 414.792 92.824V101.88ZM441.141 95.8C441.674 95.8 442.239 95.928 442.837 96.184C443.455 96.4187 444.031 96.7173 444.565 97.08H444.533C445.087 97.4853 445.514 98.008 445.813 98.648C446.111 99.288 446.261 100.056 446.261 100.952V101.912C446.261 103.661 445.685 104.952 444.533 105.784C443.978 106.211 443.413 106.52 442.837 106.712C442.261 106.904 441.695 107 441.141 107H435.701C435.146 107 434.581 106.904 434.005 106.712C433.429 106.52 432.863 106.211 432.309 105.784C431.157 104.973 430.581 103.683 430.581 101.912V101.528C430.581 100.611 431.167 100.163 432.341 100.184C433.535 100.184 434.133 100.632 434.133 101.528V101.88C434.133 102.392 434.293 102.872 434.613 103.32C434.933 103.768 435.498 103.992 436.309 103.992H440.533C441.343 103.992 441.909 103.768 442.229 103.32C442.549 102.872 442.709 102.392 442.709 101.88V100.984C442.709 100.707 442.666 100.44 442.581 100.184C442.517 99.928 442.399 99.704 442.229 99.512C442.058 99.2987 441.834 99.128 441.557 99C441.279 98.872 440.938 98.808 440.533 98.808H435.861C434.773 98.808 433.631 98.424 432.437 97.656C431.306 96.9307 430.741 95.6827 430.741 93.912V92.824C430.741 91.9707 430.89 91.224 431.189 90.584C431.487 89.9227 431.914 89.3893 432.469 88.984H432.437C432.97 88.6213 433.535 88.3227 434.133 88.088C434.73 87.8533 435.306 87.736 435.861 87.736H440.981C441.535 87.736 442.101 87.8533 442.677 88.088C443.274 88.3227 443.85 88.6213 444.405 88.984H444.373C444.927 89.3893 445.354 89.9227 445.653 90.584C445.951 91.224 446.101 91.9707 446.101 92.824V93.112C446.101 93.56 445.951 93.8907 445.653 94.104C445.354 94.296 444.917 94.4027 444.341 94.424C443.167 94.4453 442.581 94.008 442.581 93.112V92.856C442.581 92.3227 442.41 91.8427 442.069 91.416C441.749 90.968 441.194 90.744 440.405 90.744H436.437C435.647 90.744 435.082 90.968 434.741 91.416C434.421 91.8427 434.261 92.3227 434.261 92.856V93.624C434.261 94.1787 434.421 94.68 434.741 95.128C435.082 95.576 435.647 95.8 436.437 95.8H441.141ZM454.044 105.656C454.044 106.68 453.458 107.192 452.284 107.192C451.09 107.192 450.492 106.68 450.492 105.656V89.144C450.492 88.12 451.09 87.608 452.284 87.608C453.458 87.608 454.044 88.12 454.044 89.144V105.656ZM454.716 83.576C454.716 84.2587 454.482 84.8347 454.012 85.304C453.543 85.7733 452.967 86.008 452.284 86.008C451.602 86.008 451.015 85.7733 450.524 85.304C450.055 84.8347 449.82 84.2587 449.82 83.576C449.82 82.872 450.055 82.2853 450.524 81.816C451.015 81.3467 451.602 81.112 452.284 81.112C452.967 81.112 453.543 81.3467 454.012 81.816C454.482 82.2853 454.716 82.872 454.716 83.576ZM463.643 104.76C463.088 104.76 462.512 104.664 461.915 104.472C461.339 104.28 460.773 104.003 460.219 103.64C459.067 102.893 458.491 101.635 458.491 99.864V92.632C458.491 91.736 458.64 90.968 458.939 90.328C459.259 89.688 459.685 89.1867 460.219 88.824C460.773 88.4827 461.339 88.216 461.915 88.024C462.491 87.832 463.056 87.736 463.611 87.736H468.987C469.52 87.736 470.075 87.8533 470.651 88.088C471.227 88.3227 471.76 88.6213 472.251 88.984C472.741 89.3893 473.136 89.9227 473.435 90.584C473.733 91.2453 473.883 91.992 473.883 92.824V106.392C473.883 107.288 473.733 108.045 473.435 108.664C473.157 109.304 472.763 109.837 472.251 110.264C471.76 110.669 471.227 110.979 470.651 111.192C470.096 111.427 469.541 111.544 468.987 111.544H463.611C462.48 111.544 461.339 111.213 460.187 110.552C459.589 110.211 459.152 109.773 458.875 109.24C458.619 108.707 458.491 108.088 458.491 107.384V107C458.491 106.573 458.629 106.232 458.907 105.976C459.184 105.72 459.621 105.592 460.219 105.592C461.413 105.72 462.011 106.189 462.011 107V107.352C462.011 107.587 462.171 107.843 462.491 108.12C462.832 108.397 463.397 108.536 464.187 108.536H468.187C468.976 108.536 469.531 108.312 469.851 107.864C470.192 107.416 470.363 106.915 470.363 106.36V92.856C470.363 92.3227 470.192 91.8427 469.851 91.416C469.531 90.968 468.976 90.744 468.187 90.744H464.187C463.397 90.744 462.832 90.968 462.491 91.416C462.171 91.8427 462.011 92.3227 462.011 92.856V99.608C462.011 100.141 462.171 100.643 462.491 101.112C462.832 101.56 463.397 101.784 464.187 101.784H467.515C468.283 101.784 468.667 102.275 468.667 103.256C468.667 103.704 468.571 104.067 468.379 104.344C468.208 104.621 467.92 104.76 467.515 104.76H463.643ZM481.698 105.656C481.698 106.68 481.112 107.192 479.938 107.192C478.765 107.192 478.178 106.68 478.178 105.656V92.792C478.178 91.9173 478.317 91.16 478.594 90.52C478.872 89.88 479.309 89.3573 479.906 88.952C481.037 88.1413 482.168 87.736 483.298 87.736H488.45C489.538 87.736 490.669 88.1413 491.842 88.952C492.994 89.7627 493.57 91.0427 493.57 92.792V105.656C493.57 106.68 492.984 107.192 491.81 107.192C490.637 107.192 490.05 106.68 490.05 105.656V93.08C490.05 92.5253 489.88 91.992 489.538 91.48L489.57 91.512C489.293 91 488.728 90.744 487.874 90.744H483.874C483 90.744 482.424 91 482.146 91.512C481.848 91.96 481.698 92.4827 481.698 93.08V105.656ZM501.23 101.88C501.23 102.392 501.39 102.872 501.71 103.32C502.051 103.768 502.616 103.992 503.406 103.992H507.406C508.195 103.992 508.75 103.8 509.07 103.416C509.411 103.011 509.582 102.552 509.582 102.04V101.688C509.582 100.685 510.168 100.184 511.342 100.184C512.515 100.184 513.102 100.685 513.102 101.688V102.072C513.102 102.968 512.952 103.704 512.654 104.28C512.376 104.856 511.95 105.357 511.374 105.784C510.243 106.595 509.112 107 507.982 107H502.606C501.475 107 500.376 106.595 499.31 105.784C498.798 105.357 498.403 104.824 498.126 104.184C497.848 103.523 497.71 102.765 497.71 101.912V92.792C497.71 91.064 498.243 89.784 499.31 88.952C499.843 88.568 500.387 88.2693 500.942 88.056C501.518 87.8213 502.072 87.704 502.606 87.704H507.982C508.494 87.704 509.059 87.8107 509.678 88.024C510.296 88.216 510.872 88.4827 511.406 88.824C511.918 89.1867 512.323 89.688 512.622 90.328C512.942 90.968 513.102 91.7253 513.102 92.6V96.92C513.102 97.4107 512.952 97.848 512.654 98.232C512.376 98.616 511.854 98.808 511.086 98.808H504.174C503.406 98.808 503 98.3067 502.958 97.304C502.958 96.3013 503.363 95.8 504.174 95.8H509.614L509.582 92.824C509.582 92.2907 509.411 91.8107 509.07 91.384C508.75 90.936 508.195 90.712 507.406 90.712H503.406C502.616 90.712 502.051 90.936 501.71 91.384C501.39 91.8107 501.23 92.2907 501.23 92.824V101.88ZM520.634 105.656C520.634 106.68 520.048 107.192 518.874 107.192C517.658 107.192 517.05 106.68 517.05 105.656V92.408C517.05 90.6587 517.573 89.4427 518.618 88.76C519.664 88.0773 520.869 87.736 522.234 87.736H525.882C526.672 87.736 527.066 88.2373 527.066 89.24C527.109 90.2427 526.714 90.744 525.882 90.744H522.49C521.722 90.744 521.221 90.8933 520.986 91.192C520.752 91.4907 520.634 91.9067 520.634 92.44V105.656Z" fill="#AF6C3A"/>
</svg>
