<svg width="1440" height="894" viewBox="0 0 1440 894" fill="none" xmlns="http://www.w3.org/2000/svg">
<g clip-path="url(#clip0_11_2)">
<rect width="1440" height="894" fill="#ACABA7"/>
<path d="M443.028 -105C638.143 -105 1051 290.954 1051 422.241C1022.45 589.48 550.963 626.433 355.849 626.433C160.734 626.433 -152 665.909 -152 534.623C-152 403.336 247.914 -105 443.028 -105Z" fill="#544C42"/>
<path d="M192.585 -178.852C361.65 -276.461 917.335 -140.143 982.968 -26.4616C1041.84 132.634 651.773 400.5 482.709 498.11C313.644 595.719 62.3992 786.353 -3.2346 672.672C-68.8684 558.99 23.5206 -81.2421 192.585 -178.852Z" fill="#A38977"/>
<path d="M719 184.523C719 379.799 323.046 793 191.759 793C24.5201 764.424 -12.4327 292.548 -12.4327 97.2709C-12.4327 -98.0058 -51.9093 -411 79.3774 -411C210.664 -411 719 -10.7539 719 184.523Z" fill="#AF6C3A"/>
</g>
<defs>
<clipPath id="clip0_11_2">
<rect width="1440" height="894" fill="white"/>
</clipPath>
</defs>
</svg>
